<svg height='300px' width='300px'  fill="#000000" xmlns="http://www.w3.org/2000/svg" viewBox="0 0 100 100" x="0px" y="0px"><path fill="#000000" d="M60.3 95H39.7c-3.9 0-7.1-3.2-7.1-7.1 0-.4 1-29.6 1-37.9s-1-37.5-1-37.8c0-4 3.2-7.2 7.1-7.2h20.6c3.9 0 7.1 3.2 7.1 7.1 0 .4-1 29.6-1 37.9s1 37.5 1 37.8c.1 4-3.1 7.2-7.1 7.2zM39.7 9c-1.7 0-3.1 1.4-3.1 3.1 0 .2 1 29.6 1 37.9 0 8.3-1 37.6-1 37.9 0 1.7 1.4 3.1 3.1 3.1h20.6c1.7 0 3.1-1.4 3.1-3.1 0-.2-1-29.6-1-37.9 0-8.3 1-37.6 1-37.9 0-1.7-1.4-3.1-3.1-3.1H39.7z"></path><path fill="#000000" d="M50 82.5c-4.5 0-8.1-3.6-8.1-8.1s3.6-8.1 8.1-8.1 8.1 3.6 8.1 8.1-3.6 8.1-8.1 8.1zm0-12.2c-2.3 0-4.1 1.8-4.1 4.1s1.8 4.1 4.1 4.1c2.2 0 4.1-1.8 4.1-4.1s-1.9-4.1-4.1-4.1zM55.1 54.4c-1.1 0-2-.9-2-2V18.8c0-1.1.9-2 2-2s2 .9 2 2v33.6c0 1.1-.9 2-2 2zM44.9 23c-1.1 0-2-.9-2-2v-2.2c0-1.1.9-2 2-2s2 .9 2 2V21c0 1.1-.9 2-2 2zM44.9 33.5c-1.1 0-2-.9-2-2v-2.2c0-1.1.9-2 2-2s2 .9 2 2v2.2c0 1.1-.9 2-2 2zM44.9 44c-1.1 0-2-.9-2-2v-2.2c0-1.1.9-2 2-2s2 .9 2 2V42c0 1.1-.9 2-2 2zM44.9 54.5c-1.1 0-2-.9-2-2v-2.2c0-1.1.9-2 2-2s2 .9 2 2v2.2c0 1.1-.9 2-2 2z"></path></svg>