<svg height='300px' width='300px'  fill="#000000" xmlns="http://www.w3.org/2000/svg" xmlns:xlink="http://www.w3.org/1999/xlink" version="1.1" x="0px" y="0px" viewBox="0 0 100 100" enable-background="new 0 0 100 100" xml:space="preserve"><path fill="#000000" d="M93.3,69.9c-0.5-4.1-1.5-10.7-2.5-17.1c-0.9-5.7-1.7-11-2-13.7c-0.7-5.8-5.3-8.7-8.6-9.7  c-0.4-3-2.1-7.4-6.6-7.4h-4.8c-4.3,0-6,4.1-6.5,7H37.5c-0.5-2.9-2.3-7-6.5-7h-4.8c-4.5,0-6.2,4.5-6.6,7.5c-3.3,1.1-7.7,3.9-8.4,9.6  c-0.3,2.7-1.1,8-2,13.7c-1,6.4-2,13-2.5,17.1C6.4,72.5,7.2,74.1,8,75c1.1,1.3,2.8,2,4.7,2h13.1c3.6,0,6.3-4.1,9.1-8.5  c1.6-2.5,4.2-6.5,5.6-6.5h18.7c1.4,0,4,4,5.6,6.5c2.8,4.4,5.5,8.5,9.1,8.5h13.1c1.9,0,3.6-0.7,4.7-2C92.8,74.1,93.6,72.5,93.3,69.9z   M68.8,26h4.8c1.4,0,2.1,1.7,2.4,3h-9.7C66.7,27.7,67.4,26,68.8,26z M26.1,26h4.8c1.4,0,2.1,1.7,2.4,3h-9.7C24,27.7,24.7,26,26.1,26  z M89,72.4c-0.5,0.5-1.3,0.6-1.7,0.6H74.1c-1.5,0-4.1-4-5.8-6.7c-2.8-4.3-5.4-8.3-9-8.3H50h-9.3c-3.5,0-6.2,4-9,8.3  C30,69,27.3,73,25.9,73H12.8c-0.4,0-1.2-0.1-1.7-0.6c-0.5-0.5-0.5-1.4-0.4-2c0.5-4,1.5-10.6,2.5-17c0.9-5.7,1.7-11.1,2-13.8  c0.6-5.2,5.9-6.4,6.8-6.6h56.2c0.9,0.2,6.2,1.4,6.8,6.6c0.3,2.7,1.1,8.1,2,13.8c1,6.4,2,13,2.5,17C89.4,71,89.4,71.9,89,72.4z"></path><path fill="#000000" d="M77.9,44.8c1.4-1.3,1.4-3.6,0.1-4.9c-1.3-1.4-3.6-1.4-4.9-0.1c-1.4,1.3-1.4,3.5-0.1,4.9  C74.3,46.1,76.5,46.1,77.9,44.8z"></path><path fill="#000000" d="M75.2,50.3c-1.4,1.3-1.4,3.6-0.1,4.9c1.3,1.4,3.6,1.4,4.9,0.1c1.4-1.3,1.4-3.6,0.1-5  C78.8,49,76.6,49,75.2,50.3z"></path><path fill="#000000" d="M64.7,50.3c-1.4,1.3-1.4,3.5-0.1,4.9c1.3,1.4,3.6,1.4,4.9,0.1c1.4-1.3,1.4-3.6,0.1-4.9  C68.3,49,66.1,49,64.7,50.3z"></path><path fill="#000000" d="M67.5,44.8c1.4-1.3,1.4-3.6,0.1-5c-1.3-1.4-3.6-1.4-4.9-0.1c-1.4,1.3-1.4,3.5-0.1,4.9  C63.9,46.1,66.1,46.1,67.5,44.8z"></path><path fill="#000000" d="M53,38h-6c-1.1,0-2,0.9-2,2s0.9,2,2,2h6c1.1,0,2-0.9,2-2S54.1,38,53,38z"></path><path fill="#000000" d="M29.3,36.2c-6.3,0-11.4,5.1-11.4,11.4c0,6.3,5.1,11.4,11.4,11.4s11.4-5.1,11.4-11.4  C40.7,41.3,35.6,36.2,29.3,36.2z M29.3,54.8c-4,0-7.2-3.2-7.2-7.2c0-4,3.2-7.2,7.2-7.2s7.2,3.2,7.2,7.2  C36.5,51.6,33.3,54.8,29.3,54.8z"></path><path fill="#000000" d="M32.8,45.6h-1.6V44c0-1.1-0.9-2-2-2s-2,0.9-2,2v1.6h-1.6c-1.1,0-2,0.9-2,2s0.9,2,2,2h1.6v1.6  c0,1.1,0.9,2,2,2s2-0.9,2-2v-1.6h1.6c1.1,0,2-0.9,2-2S33.9,45.6,32.8,45.6z"></path></svg>